<?xml version="1.0" encoding="utf-8"?>
<!-- Generator: Adobe Illustrator 24.0.3, SVG Export Plug-In . SVG Version: 6.00 Build 0)  -->
<svg version="1.1" id="Layer_1" xmlns="http://www.w3.org/2000/svg" xmlns:xlink="http://www.w3.org/1999/xlink" x="0px" y="0px"
	 viewBox="0 0 532.3 531.6" style="enable-background:new 0 0 532.3 531.6;" xml:space="preserve">
<style type="text/css">
	.st0{fill:none;stroke:#000000;stroke-width:0.25;stroke-miterlimit:10;}
	.st1{fill:#D1D3D4;}
	.st2{fill:#939598;}
	.st3{fill:#2A9CD8;}
	.st4{fill:#EB5E92;}
	.st5{fill:#003A5D;}
	.st6{fill:#3AAA35;}
	.st7{fill:#E29B1E;}
	.st8{fill:#FFFFFF;}
	.st9{font-family:'Arial-BoldMT';}
	.st10{font-size:14.999px;}
	.st11{font-size:26px;}
	.st12{enable-background:new    ;}
	.st13{font-size:14.9984px;}
	.st14{font-size:15px;}
</style>
<path class="st0" d="M364.8,44.8"/>
<g>
	<circle class="st1" cx="263.4" cy="263.8" r="242.5"/>
	<circle class="st2" cx="263.4" cy="263.8" r="201.2"/>
	<path class="st3" d="M448.4,74.2c-36.1,40-72.3,80.1-108.4,120.1c-5.2-6.1-14.6-15.6-29.1-22.6c-19.2-9.3-36.8-9.4-45.2-8.9V2
		c22.2,0.3,56.9,3.4,96.1,18.6C402.9,36.5,431.6,58.9,448.4,74.2z"/>
	<path class="st4" d="M531.7,268.2c-0.4,22.9-3.8,58.2-19.4,97.8c-18.1,46-44.4,77.2-61.4,94.5l-114-118.7
		c7.2-7.5,17.7-20.3,25.1-38.8c5.4-13.6,7.4-25.9,8.1-34.8H531.7z"/>
	<path class="st5" d="M355.6,512.6c-20.3,7-50.4,14.9-87.6,15.6c-40.1,0.8-72.7-6.9-93.9-13.8c16.7-48.8,33.4-97.6,50.2-146.5
		c8.8,2.5,22.2,5.3,38.6,4.4c15.3-0.8,27.5-4.3,35.8-7.6C317.6,414.1,336.6,463.4,355.6,512.6z"/>
	<path class="st6" d="M195.9,344.6c-38.3,39.3-76.5,78.6-114.8,118c-17.2-16.9-45.9-49.7-63.8-99.4C3.6,324.8,1.5,290.9,2,268.8
		h158.2c0,8.7,1.3,24.9,9.8,42.6C178.2,328.4,189.3,339.1,195.9,344.6z"/>
	<path class="st7" d="M227.4,171.7c-8.9,4-23.5,11.9-37.2,26.7c-14.2,15.3-21,31.1-24.2,40.4c-51.4-16-102.9-31.8-154.3-47.7
		c7.2-22.4,23.4-62.9,59.8-101.8c35.5-37.9,73.7-56.7,95.3-65.4C187,73.1,207.2,122.4,227.4,171.7z"/>
	<circle class="st8" cx="266.1" cy="266.8" r="117.3"/>
	<text transform="matrix(0.5532 -0.7099 0.7888 0.6146 89.7924 174.491)" class="st8 st9 st10">GUíAS GOLD</text>
	<text transform="matrix(0.5532 -0.7099 0.7888 0.6146 119.5503 178.2451)" class="st8 st9 st11">2020</text>
	<text transform="matrix(0.7918 0.3091 -0.3636 0.9315 291.0427 67.2895)" class="st12"><tspan x="0" y="0" class="st8 st9 st13">REDUCCIóN DE</tspan><tspan x="-12.9" y="18" class="st8 st9 st13">EXACERBACIONES</tspan></text>
	<text transform="matrix(0.85 0 0 1 398.059 311.7235)" class="st12"><tspan x="0" y="0" class="st8 st9 st14">EVIDENCIA DE</tspan><tspan x="-5.4" y="18" class="st8 st9 st14">MEJORíA DE LA</tspan><tspan x="19.2" y="36" class="st8 st9 st14">FUNCIóN</tspan><tspan x="-17.9" y="54" class="st8 st9 st14">CARDIOVASCULAR</tspan></text>
	<text transform="matrix(0.85 0 0 1 51.6828 336.9169)" class="st12"><tspan x="0" y="0" class="st8 st9 st14">CALIDAD</tspan><tspan x="0" y="18" class="st8 st9 st14">DE VIDA</tspan></text>
	<text transform="matrix(0.85 0 0 1 217.0982 460.5)" class="st8 st9 st14">BREEZHALER</text>
	<text transform="matrix(0.4956 0 0 0.583 304.2252 455.5049)" class="st8 st9 st14">®</text>
</g>
</svg>
