<?xml version="1.0" encoding="utf-8"?>
<!-- Generator: Adobe Illustrator 24.0.3, SVG Export Plug-In . SVG Version: 6.00 Build 0)  -->
<svg version="1.1" id="Layer_1" xmlns="http://www.w3.org/2000/svg" xmlns:xlink="http://www.w3.org/1999/xlink" x="0px" y="0px"
	 viewBox="0 0 532.3 531.6" style="enable-background:new 0 0 532.3 531.6;" xml:space="preserve">
<style type="text/css">
	.st0{fill:none;stroke:#000000;stroke-width:0.25;stroke-miterlimit:10;}
	.st1{fill:#D1D3D4;}
	.st2{fill:#939598;}
	.st3{fill:#2A9CD8;}
	.st4{fill:#EB5E92;}
	.st5{fill:#003A5D;}
	.st6{fill:#3AAA35;}
	.st7{fill:#E29B1E;}
	.st8{fill:#FFFFFF;}
	.st9{font-family:'Arial-BoldMT';}
	.st10{font-size:14.9985px;}
	.st11{font-size:25.9992px;}
	.st12{font-size:14.9976px;}
	.st13{font-size:15px;}
	.st14{font-size:8.745px;}
</style>
<path class="st0" d="M364.8,44.8"/>
<g>
	<circle class="st1" cx="263.4" cy="263.8" r="242.5"/>
	<circle class="st2" cx="263.4" cy="263.8" r="201.2"/>
	<path class="st3" d="M494.4,147.7c-47.5,25.4-95.1,50.9-142.7,76.3c-2.8-7.5-8.5-19.6-19.7-31.1c-14.9-15.2-31.4-21.3-39.5-23.7
		l54.4-151.3c20.8,7.8,52.4,22.5,84.1,50C464.4,96.8,483.8,127.6,494.4,147.7z"/>
	<path class="st4" d="M531.7,268.2c-0.4,22.9-3.8,58.2-19.4,97.8c-18.1,46-44.4,77.2-61.4,94.5l-114-118.7
		c7.2-7.5,17.7-20.3,25.1-38.8c5.4-13.6,7.4-25.9,8.1-34.8H531.7z"/>
	<path class="st5" d="M354.1,513.6c-20.5,7-50.7,14.7-87.9,14.7c-40.1,0-72.5-8.9-93.6-16.6c17.8-51.4,35.6-102.7,53.5-154.2
		c8.7,2.8,22.1,6.1,38.5,5.5c15.3-0.5,27.6-4,36-7.3C318.3,408.4,336.2,461,354.1,513.6z"/>
	<path class="st6" d="M195.9,344.6c-38.3,39.3-76.5,78.6-114.8,118c-17.2-16.9-45.9-49.7-63.8-99.4C3.6,324.8,1.5,290.9,2,268.8
		h158.2c0,8.7,1.3,24.9,9.8,42.6C178.2,328.4,189.3,339.1,195.9,344.6z"/>
	<path class="st7" d="M227.4,171.7c-8.9,4-23.5,11.9-37.2,26.7c-14.2,15.3-21,31.1-24.2,40.4c-51.4-16-102.9-31.8-154.3-47.7
		c7.2-22.4,23.4-62.9,59.8-101.8c35.5-37.9,73.7-56.7,95.3-65.4C187,73.1,207.2,122.4,227.4,171.7z"/>
	<circle class="st8" cx="266.1" cy="266.8" r="117.3"/>
	<text transform="matrix(0.5532 -0.7099 0.7888 0.6146 89.7922 174.4917)" class="st8 st9 st10">GUíAS GOLD</text>
	<text transform="matrix(0.5532 -0.7099 0.7888 0.6146 119.5493 178.2455)" class="st8 st9 st11">2020</text>
	<text transform="matrix(0.662 0.5332 -0.6273 0.7788 352.395 87.5113)" class="st8 st9 st12">REDUCCIóN DE</text>
	<text transform="matrix(0.662 0.5332 -0.6273 0.7788 332.5654 94.6505)" class="st8 st9 st12">EXACERBACIONES</text>
	<text transform="matrix(0.85 0 0 1 398.0586 311.7236)" class="st8 st9 st13">EVIDENCIA DE</text>
	<text transform="matrix(0.85 0 0 1 393.4688 329.7236)" class="st8 st9 st13">MEJORíA DE LA</text>
	<text transform="matrix(0.85 0 0 1 414.3789 347.7236)" class="st8 st9 st13">FUNCIóN</text>
	<text transform="matrix(0.85 0 0 1 382.8438 365.7236)" class="st8 st9 st13">CARDIOVASCULAR</text>
	<text transform="matrix(0.85 0 0 1 51.6826 336.917)" class="st8 st9 st13">CALIDAD</text>
	<text transform="matrix(0.85 0 0 1 51.6826 354.917)" class="st8 st9 st13">DE VIDA</text>
	<text transform="matrix(0.85 0 0 1 217.0981 460.5)" class="st8 st9 st13">BREEZHALER</text>
	<text transform="matrix(0.8501 0 0 1 304.2256 455.5049)" class="st8 st9 st14">®</text>
</g>
</svg>
